<svg width="53" height="51" viewBox="0 0 53 51" fill="none" xmlns="http://www.w3.org/2000/svg">
<rect width="53" height="51" rx="25.5" fill="white"/>
<path fill-rule="evenodd" clip-rule="evenodd" d="M34.4503 20.4C34.4503 24.625 30.891 28.05 26.5003 28.05C22.1097 28.05 18.5503 24.625 18.5503 20.4C18.5503 16.175 22.1097 12.75 26.5003 12.75C30.891 12.75 34.4503 16.175 34.4503 20.4ZM31.8003 20.4C31.8003 23.2167 29.4274 25.5 26.5003 25.5C23.5732 25.5 21.2003 23.2167 21.2003 20.4C21.2003 17.5833 23.5732 15.3 26.5003 15.3C29.4274 15.3 31.8003 17.5833 31.8003 20.4Z" fill="black"/>
<path d="M26.5003 31.875C17.9218 31.875 10.6126 36.7562 7.82837 43.5949C8.50663 44.243 9.22113 44.856 9.96868 45.4309C12.042 39.1523 18.546 34.425 26.5003 34.425C34.4547 34.425 40.9587 39.1523 43.032 45.4309C43.7795 44.856 44.494 44.243 45.1723 43.5949C42.3881 36.7562 35.0789 31.875 26.5003 31.875Z" fill="black"/>
</svg>
